<mxfile host="app.diagrams.net" modified="2024-02-21T00:13:24.089Z" agent="Mozilla/5.0 (Windows NT 10.0; Win64; x64) AppleWebKit/537.36 (KHTML, like Gecko) Chrome/121.0.0.0 Safari/537.36" etag="uODcCm7ttOtiGlDnve9t" version="23.1.5" type="device">
  <diagram name="PÃ¡gina-1" id="_wxteCtrQfnI--dOalqu">
    <mxGraphModel dx="1532" dy="780" grid="1" gridSize="10" guides="1" tooltips="1" connect="1" arrows="1" fold="1" page="1" pageScale="1" pageWidth="827" pageHeight="1169" math="0" shadow="0">
      <root>
        <mxCell id="0" />
        <mxCell id="1" parent="0" />
        <mxCell id="Vvz-zuwa6I6UeZTP1wOW-79" style="edgeStyle=orthogonalEdgeStyle;rounded=0;orthogonalLoop=1;jettySize=auto;html=1;entryX=0;entryY=0.5;entryDx=0;entryDy=0;" edge="1" parent="1" source="Vvz-zuwa6I6UeZTP1wOW-73" target="Vvz-zuwa6I6UeZTP1wOW-77">
          <mxGeometry relative="1" as="geometry" />
        </mxCell>
        <mxCell id="Vvz-zuwa6I6UeZTP1wOW-73" value="Aluno" style="rounded=0;whiteSpace=wrap;html=1;fillColor=#f9f7ed;strokeColor=#36393d;" vertex="1" parent="1">
          <mxGeometry x="100" y="130" width="180" height="100" as="geometry" />
        </mxCell>
        <mxCell id="Vvz-zuwa6I6UeZTP1wOW-77" value="Matricula" style="rhombus;whiteSpace=wrap;html=1;fillColor=#cce5ff;strokeColor=#36393d;" vertex="1" parent="1">
          <mxGeometry x="350" y="130" width="100" height="100" as="geometry" />
        </mxCell>
        <mxCell id="Vvz-zuwa6I6UeZTP1wOW-84" style="edgeStyle=orthogonalEdgeStyle;rounded=0;orthogonalLoop=1;jettySize=auto;html=1;entryX=0.5;entryY=0;entryDx=0;entryDy=0;" edge="1" parent="1" source="Vvz-zuwa6I6UeZTP1wOW-78" target="Vvz-zuwa6I6UeZTP1wOW-82">
          <mxGeometry relative="1" as="geometry" />
        </mxCell>
        <mxCell id="Vvz-zuwa6I6UeZTP1wOW-78" value="Curso" style="rounded=0;whiteSpace=wrap;html=1;fillColor=#f9f7ed;strokeColor=#36393d;" vertex="1" parent="1">
          <mxGeometry x="500" y="120" width="180" height="100" as="geometry" />
        </mxCell>
        <mxCell id="Vvz-zuwa6I6UeZTP1wOW-81" style="edgeStyle=orthogonalEdgeStyle;rounded=0;orthogonalLoop=1;jettySize=auto;html=1;entryX=-0.011;entryY=0.6;entryDx=0;entryDy=0;entryPerimeter=0;" edge="1" parent="1" source="Vvz-zuwa6I6UeZTP1wOW-77" target="Vvz-zuwa6I6UeZTP1wOW-78">
          <mxGeometry relative="1" as="geometry" />
        </mxCell>
        <mxCell id="Vvz-zuwa6I6UeZTP1wOW-82" value="Composto" style="rhombus;whiteSpace=wrap;html=1;fillColor=#cce5ff;strokeColor=#36393d;" vertex="1" parent="1">
          <mxGeometry x="537.5" y="330" width="105" height="100" as="geometry" />
        </mxCell>
        <mxCell id="Vvz-zuwa6I6UeZTP1wOW-85" value="Disciplina" style="rounded=0;whiteSpace=wrap;html=1;fillColor=#f9f7ed;strokeColor=#36393d;" vertex="1" parent="1">
          <mxGeometry x="510" y="535" width="180" height="100" as="geometry" />
        </mxCell>
        <mxCell id="Vvz-zuwa6I6UeZTP1wOW-86" style="edgeStyle=orthogonalEdgeStyle;rounded=0;orthogonalLoop=1;jettySize=auto;html=1;entryX=0.444;entryY=0.05;entryDx=0;entryDy=0;entryPerimeter=0;" edge="1" parent="1">
          <mxGeometry relative="1" as="geometry">
            <mxPoint x="590" y="430" as="sourcePoint" />
            <mxPoint x="589.5200000000001" y="535" as="targetPoint" />
          </mxGeometry>
        </mxCell>
        <mxCell id="Vvz-zuwa6I6UeZTP1wOW-89" style="edgeStyle=orthogonalEdgeStyle;rounded=0;orthogonalLoop=1;jettySize=auto;html=1;" edge="1" parent="1" source="Vvz-zuwa6I6UeZTP1wOW-87">
          <mxGeometry relative="1" as="geometry">
            <mxPoint x="340" y="585" as="targetPoint" />
          </mxGeometry>
        </mxCell>
        <mxCell id="Vvz-zuwa6I6UeZTP1wOW-87" value="Professor" style="rounded=0;whiteSpace=wrap;html=1;fillColor=#f9f7ed;strokeColor=#36393d;" vertex="1" parent="1">
          <mxGeometry x="100" y="535" width="180" height="100" as="geometry" />
        </mxCell>
        <mxCell id="Vvz-zuwa6I6UeZTP1wOW-90" style="edgeStyle=orthogonalEdgeStyle;rounded=0;orthogonalLoop=1;jettySize=auto;html=1;entryX=0;entryY=0.5;entryDx=0;entryDy=0;" edge="1" parent="1" source="Vvz-zuwa6I6UeZTP1wOW-88" target="Vvz-zuwa6I6UeZTP1wOW-85">
          <mxGeometry relative="1" as="geometry" />
        </mxCell>
        <mxCell id="Vvz-zuwa6I6UeZTP1wOW-88" value="Leciona" style="rhombus;whiteSpace=wrap;html=1;fillColor=#cce5ff;strokeColor=#36393d;" vertex="1" parent="1">
          <mxGeometry x="340" y="537.5" width="100" height="95" as="geometry" />
        </mxCell>
      </root>
    </mxGraphModel>
  </diagram>
</mxfile>
